<svg id="visual" viewBox="0 0 900 900" width="900" height="900" xmlns="http://www.w3.org/2000/svg" xmlns:xlink="http://www.w3.org/1999/xlink" version="1.1"><rect x="0" y="0" width="900" height="900" fill="#2c155d"></rect><defs><linearGradient id="grad1_0" x1="0%" y1="0%" x2="100%" y2="100%"><stop offset="30%" stop-color="#9b78e6" stop-opacity="1"></stop><stop offset="70%" stop-color="#9b78e6" stop-opacity="1"></stop></linearGradient></defs><defs><linearGradient id="grad1_1" x1="0%" y1="0%" x2="100%" y2="100%"><stop offset="30%" stop-color="#9b78e6" stop-opacity="1"></stop><stop offset="70%" stop-color="#8a69d1" stop-opacity="1"></stop></linearGradient></defs><defs><linearGradient id="grad1_2" x1="0%" y1="0%" x2="100%" y2="100%"><stop offset="30%" stop-color="#7a5abd" stop-opacity="1"></stop><stop offset="70%" stop-color="#8a69d1" stop-opacity="1"></stop></linearGradient></defs><defs><linearGradient id="grad1_3" x1="0%" y1="0%" x2="100%" y2="100%"><stop offset="30%" stop-color="#7a5abd" stop-opacity="1"></stop><stop offset="70%" stop-color="#6a4ba9" stop-opacity="1"></stop></linearGradient></defs><defs><linearGradient id="grad1_4" x1="0%" y1="0%" x2="100%" y2="100%"><stop offset="30%" stop-color="#5a3d95" stop-opacity="1"></stop><stop offset="70%" stop-color="#6a4ba9" stop-opacity="1"></stop></linearGradient></defs><defs><linearGradient id="grad1_5" x1="0%" y1="0%" x2="100%" y2="100%"><stop offset="30%" stop-color="#5a3d95" stop-opacity="1"></stop><stop offset="70%" stop-color="#4b2f82" stop-opacity="1"></stop></linearGradient></defs><defs><linearGradient id="grad1_6" x1="0%" y1="0%" x2="100%" y2="100%"><stop offset="30%" stop-color="#3b226f" stop-opacity="1"></stop><stop offset="70%" stop-color="#4b2f82" stop-opacity="1"></stop></linearGradient></defs><defs><linearGradient id="grad1_7" x1="0%" y1="0%" x2="100%" y2="100%"><stop offset="30%" stop-color="#3b226f" stop-opacity="1"></stop><stop offset="70%" stop-color="#2c155d" stop-opacity="1"></stop></linearGradient></defs><defs><linearGradient id="grad2_0" x1="0%" y1="0%" x2="100%" y2="100%"><stop offset="30%" stop-color="#9b78e6" stop-opacity="1"></stop><stop offset="70%" stop-color="#9b78e6" stop-opacity="1"></stop></linearGradient></defs><defs><linearGradient id="grad2_1" x1="0%" y1="0%" x2="100%" y2="100%"><stop offset="30%" stop-color="#8a69d1" stop-opacity="1"></stop><stop offset="70%" stop-color="#9b78e6" stop-opacity="1"></stop></linearGradient></defs><defs><linearGradient id="grad2_2" x1="0%" y1="0%" x2="100%" y2="100%"><stop offset="30%" stop-color="#8a69d1" stop-opacity="1"></stop><stop offset="70%" stop-color="#7a5abd" stop-opacity="1"></stop></linearGradient></defs><defs><linearGradient id="grad2_3" x1="0%" y1="0%" x2="100%" y2="100%"><stop offset="30%" stop-color="#6a4ba9" stop-opacity="1"></stop><stop offset="70%" stop-color="#7a5abd" stop-opacity="1"></stop></linearGradient></defs><defs><linearGradient id="grad2_4" x1="0%" y1="0%" x2="100%" y2="100%"><stop offset="30%" stop-color="#6a4ba9" stop-opacity="1"></stop><stop offset="70%" stop-color="#5a3d95" stop-opacity="1"></stop></linearGradient></defs><defs><linearGradient id="grad2_5" x1="0%" y1="0%" x2="100%" y2="100%"><stop offset="30%" stop-color="#4b2f82" stop-opacity="1"></stop><stop offset="70%" stop-color="#5a3d95" stop-opacity="1"></stop></linearGradient></defs><defs><linearGradient id="grad2_6" x1="0%" y1="0%" x2="100%" y2="100%"><stop offset="30%" stop-color="#4b2f82" stop-opacity="1"></stop><stop offset="70%" stop-color="#3b226f" stop-opacity="1"></stop></linearGradient></defs><defs><linearGradient id="grad2_7" x1="0%" y1="0%" x2="100%" y2="100%"><stop offset="30%" stop-color="#2c155d" stop-opacity="1"></stop><stop offset="70%" stop-color="#3b226f" stop-opacity="1"></stop></linearGradient></defs><g transform="translate(900, 0)"><path d="M0 604.6C-54.2 603.5 -108.4 602.3 -156.5 584C-204.6 565.6 -246.5 530 -289 500.6C-331.5 471.1 -374.5 447.8 -416.5 416.5C-458.4 385.2 -499.3 345.9 -517 298.5C-534.7 251.1 -529.2 195.8 -540 144.7C-550.7 93.6 -577.6 46.8 -604.6 0L0 0Z" fill="#341b66"></path><path d="M0 529C-47.4 528 -94.8 527 -136.9 511C-179 494.9 -215.7 463.8 -252.9 438C-290.1 412.2 -327.7 391.8 -364.4 364.4C-401.1 337 -436.9 302.6 -452.4 261.2C-467.9 219.8 -463.1 171.3 -472.5 126.6C-481.8 81.9 -505.4 40.9 -529 0L0 0Z" fill="#432978"></path><path d="M0 453.4C-40.6 452.6 -81.3 451.8 -117.4 438C-153.4 424.2 -184.9 397.5 -216.7 375.4C-248.6 353.3 -280.9 335.9 -312.4 312.4C-343.8 288.9 -374.5 259.4 -387.8 223.9C-401 188.4 -396.9 146.8 -405 108.5C-413 70.2 -433.2 35.1 -453.4 0L0 0Z" fill="#52368b"></path><path d="M0 377.9C-33.9 377.2 -67.7 376.5 -97.8 365C-127.8 353.5 -154.1 331.3 -180.6 312.9C-207.2 294.4 -234.1 279.9 -260.3 260.3C-286.5 240.7 -312.1 216.2 -323.1 186.6C-334.2 157 -330.8 122.4 -337.5 90.4C-344.2 58.5 -361 29.2 -377.9 0L0 0Z" fill="#62449f"></path><path d="M0 302.3C-27.1 301.7 -54.2 301.2 -78.2 292C-102.3 282.8 -123.3 265 -144.5 250.3C-165.7 235.6 -187.3 223.9 -208.2 208.2C-229.2 192.6 -249.7 172.9 -258.5 149.3C-267.4 125.6 -264.6 97.9 -270 72.3C-275.3 46.8 -288.8 23.4 -302.3 0L0 0Z" fill="#7252b3"></path><path d="M0 226.7C-20.3 226.3 -40.6 225.9 -58.7 219C-76.7 212.1 -92.4 198.8 -108.4 187.7C-124.3 176.7 -140.4 167.9 -156.2 156.2C-171.9 144.4 -187.2 129.7 -193.9 111.9C-200.5 94.2 -198.5 73.4 -202.5 54.3C-206.5 35.1 -216.6 17.5 -226.7 0L0 0Z" fill="#8261c7"></path><path d="M0 151.1C-13.5 150.9 -27.1 150.6 -39.1 146C-51.1 141.4 -61.6 132.5 -72.2 125.1C-82.9 117.8 -93.6 112 -104.1 104.1C-114.6 96.3 -124.8 86.5 -129.3 74.6C-133.7 62.8 -132.3 48.9 -135 36.2C-137.7 23.4 -144.4 11.7 -151.1 0L0 0Z" fill="#9370dc"></path><path d="M0 75.6C-6.8 75.4 -13.5 75.3 -19.6 73C-25.6 70.7 -30.8 66.3 -36.1 62.6C-41.4 58.9 -46.8 56 -52.1 52.1C-57.3 48.1 -62.4 43.2 -64.6 37.3C-66.8 31.4 -66.2 24.5 -67.5 18.1C-68.8 11.7 -72.2 5.8 -75.6 0L0 0Z" fill="#9b78e6"></path></g><g transform="translate(0, 900)"><path d="M0 -604.6C50.6 -592.1 101.2 -579.6 152.2 -568C203.2 -556.3 254.7 -545.6 302.3 -523.6C349.9 -501.6 393.5 -468.2 426.4 -426.4C459.2 -384.5 481.3 -334.1 493.6 -285C506 -235.9 508.6 -188.1 525.5 -140.8C542.3 -93.5 573.5 -46.8 604.6 0L0 0Z" fill="#341b66"></path><path d="M0 -529C44.3 -518.1 88.5 -507.1 133.2 -497C177.8 -486.8 222.9 -477.4 264.5 -458.1C306.1 -438.9 344.3 -409.7 373.1 -373.1C401.8 -336.5 421.1 -292.3 431.9 -249.4C442.7 -206.4 445 -164.6 459.8 -123.2C474.5 -81.8 501.8 -40.9 529 0L0 0Z" fill="#432978"></path><path d="M0 -453.4C37.9 -444.1 75.9 -434.7 114.1 -426C152.4 -417.3 191 -409.2 226.7 -392.7C262.4 -376.2 295.1 -351.2 319.8 -319.8C344.4 -288.4 361 -250.6 370.2 -213.8C379.5 -176.9 381.4 -141.1 394.1 -105.6C406.8 -70.1 430.1 -35.1 453.4 0L0 0Z" fill="#52368b"></path><path d="M0 -377.9C31.6 -370 63.2 -362.2 95.1 -355C127 -347.7 159.2 -341 188.9 -327.2C218.7 -313.5 246 -292.7 266.5 -266.5C287 -240.3 300.8 -208.8 308.5 -178.1C316.2 -147.4 317.9 -117.6 328.4 -88C339 -58.4 358.4 -29.2 377.9 0L0 0Z" fill="#62449f"></path><path d="M0 -302.3C25.3 -296 50.6 -289.8 76.1 -284C101.6 -278.2 127.4 -272.8 151.1 -261.8C174.9 -250.8 196.8 -234.1 213.2 -213.2C229.6 -192.3 240.6 -167.1 246.8 -142.5C253 -117.9 254.3 -94 262.7 -70.4C271.2 -46.8 286.7 -23.4 302.3 0L0 0Z" fill="#7252b3"></path><path d="M0 -226.7C19 -222 37.9 -217.3 57.1 -213C76.2 -208.6 95.5 -204.6 113.4 -196.3C131.2 -188.1 147.6 -175.6 159.9 -159.9C172.2 -144.2 180.5 -125.3 185.1 -106.9C189.7 -88.5 190.7 -70.5 197 -52.8C203.4 -35.1 215 -17.5 226.7 0L0 0Z" fill="#8261c7"></path><path d="M0 -151.1C12.6 -148 25.3 -144.9 38 -142C50.8 -139.1 63.7 -136.4 75.6 -130.9C87.5 -125.4 98.4 -117.1 106.6 -106.6C114.8 -96.1 120.3 -83.5 123.4 -71.3C126.5 -59 127.1 -47 131.4 -35.2C135.6 -23.4 143.4 -11.7 151.1 0L0 0Z" fill="#9370dc"></path><path d="M0 -75.6C6.3 -74 12.6 -72.4 19 -71C25.4 -69.5 31.8 -68.2 37.8 -65.4C43.7 -62.7 49.2 -58.5 53.3 -53.3C57.4 -48.1 60.2 -41.8 61.7 -35.6C63.2 -29.5 63.6 -23.5 65.7 -17.6C67.8 -11.7 71.7 -5.8 75.6 0L0 0Z" fill="#9b78e6"></path></g></svg>